{
  "accessors": [
    {
      "bufferView": 2,
      "componentType": 5126,
      "count": 7209,
      "max": [
        69.69999694824219,
        35.0,
        390.1811218261719
      ],
      "min": [
        -69.69999694824219,
        -37.5,
        -88.5999984741211
      ],
      "type": "VEC3"
    },
    {
      "bufferView": 2,
      "byteOffset": 86508,
      "componentType": 5126,
      "count": 7209,
      "max": [
        1.0,
        1.0,
        1.0
      ],
      "min": [
        -1.0,
        -1.0,
        -1.0
      ],
      "type": "VEC3"
    },
    {
      "bufferView": 1,
      "componentType": 5126,
      "count": 7209,
      "max": [
        0.9988667964935303,
        0.9997153878211975
      ],
      "min": [
        0.00029014161555096507,
        0.0066596269607543945
      ],
      "type": "VEC2"
    },
    {
      "bufferView": 0,
      "componentType": 5125,
      "count": 20784,
      "type": "SCALAR"
    },
    {
      "bufferView": 2,
      "byteOffset": 173016,
      "componentType": 5126,
      "count": 1701,
      "max": [
        50.42721939086914,
        2.9669759273529053,
        238.77395629882813
      ],
      "min": [
        -50.42721939086914,
        -36.80234146118164,
        -15.0
      ],
      "type": "VEC3"
    },
    {
      "bufferView": 2,
      "byteOffset": 193428,
      "componentType": 5126,
      "count": 1701,
      "max": [
        1.0,
        1.0,
        1.0
      ],
      "min": [
        -1.0,
        -1.0,
        -1.0
      ],
      "type": "VEC3"
    },
    {
      "bufferView": 1,
      "byteOffset": 57672,
      "componentType": 5126,
      "count": 1701,
      "max": [
        0.9969756603240967,
        0.9957259297370911
      ],
      "min": [
        0.023567911237478256,
        0.024340152740478516
      ],
      "type": "VEC2"
    },
    {
      "bufferView": 0,
      "byteOffset": 83136,
      "componentType": 5125,
      "count": 5166,
      "type": "SCALAR"
    },
    {
      "bufferView": 2,
      "byteOffset": 213840,
      "componentType": 5126,
      "count": 1691,
      "max": [
        61.52000045776367,
        2.9669759273529053,
        238.77395629882813
      ],
      "min": [
        -61.52000045776367,
        -36.80234146118164,
        -15.0
      ],
      "type": "VEC3"
    },
    {
      "bufferView": 2,
      "byteOffset": 234132,
      "componentType": 5126,
      "count": 1691,
      "max": [
        1.0,
        1.0,
        1.0
      ],
      "min": [
        -1.0,
        -1.0,
        -1.0
      ],
      "type": "VEC3"
    },
    {
      "bufferView": 1,
      "byteOffset": 71280,
      "componentType": 5126,
      "count": 1691,
      "max": [
        0.9981101155281067,
        0.9735102653503418
      ],
      "min": [
        0.02649572677910328,
        0.026688456535339355
      ],
      "type": "VEC2"
    },
    {
      "bufferView": 0,
      "byteOffset": 103800,
      "componentType": 5125,
      "count": 5166,
      "type": "SCALAR"
    },
    {
      "bufferView": 2,
      "byteOffset": 254424,
      "componentType": 5126,
      "count": 2736,
      "max": [
        17.668411254882813,
        9.497611999511719,
        9.497525215148926
      ],
      "min": [
        -5.583208084106445,
        -10.32400894165039,
        -9.497525215148926
      ],
      "type": "VEC3"
    },
    {
      "bufferView": 2,
      "byteOffset": 287256,
      "componentType": 5126,
      "count": 2736,
      "max": [
        0.9848082661628723,
        0.9848077893257141,
        1.0
      ],
      "min": [
        -0.9848080277442932,
        -0.9848077297210693,
        -1.0
      ],
      "type": "VEC3"
    },
    {
      "bufferView": 1,
      "byteOffset": 84808,
      "componentType": 5126,
      "count": 2736,
      "max": [
        0.9805147051811218,
        0.9814240336418152
      ],
      "min": [
        0.05017220973968506,
        0.0504453182220459
      ],
      "type": "VEC2"
    },
    {
      "bufferView": 0,
      "byteOffset": 124464,
      "componentType": 5125,
      "count": 8688,
      "type": "SCALAR"
    },
    {
      "bufferView": 2,
      "byteOffset": 320088,
      "componentType": 5126,
      "count": 2732,
      "max": [
        9.129968643188477,
        4.399034023284912,
        9.497525215148926
      ],
      "min": [
        -9.129968643188477,
        -16.371919631958008,
        -9.497525215148926
      ],
      "type": "VEC3"
    },
    {
      "bufferView": 2,
      "byteOffset": 352872,
      "componentType": 5126,
      "count": 2732,
      "max": [
        1.0,
        1.0,
        1.0
      ],
      "min": [
        -1.0,
        -1.0,
        -1.0
      ],
      "type": "VEC3"
    },
    {
      "bufferView": 1,
      "byteOffset": 106696,
      "componentType": 5126,
      "count": 2732,
      "max": [
        0.981563925743103,
        0.9939936399459839
      ],
      "min": [
        0.05025985836982727,
        0.06692349910736084
      ],
      "type": "VEC2"
    },
    {
      "bufferView": 0,
      "byteOffset": 159216,
      "componentType": 5125,
      "count": 8688,
      "type": "SCALAR"
    },
    {
      "bufferView": 2,
      "byteOffset": 385656,
      "componentType": 5126,
      "count": 2725,
      "max": [
        22.161731719970703,
        39.740562438964844,
        22.161731719970703
      ],
      "min": [
        -22.161731719970703,
        -10.678044319152832,
        -22.161731719970703
      ],
      "type": "VEC3"
    },
    {
      "bufferView": 2,
      "byteOffset": 418356,
      "componentType": 5126,
      "count": 2725,
      "max": [
        1.0,
        1.0,
        1.0
      ],
      "min": [
        -1.0,
        -1.0,
        -1.0
      ],
      "type": "VEC3"
    },
    {
      "bufferView": 1,
      "byteOffset": 128552,
      "componentType": 5126,
      "count": 2725,
      "max": [
        0.9820801019668579,
        0.9787484407424927
      ],
      "min": [
        0.054889146238565445,
        0.05008411407470703
      ],
      "type": "VEC2"
    },
    {
      "bufferView": 0,
      "byteOffset": 193968,
      "componentType": 5125,
      "count": 8688,
      "type": "SCALAR"
    },
    {
      "bufferView": 2,
      "byteOffset": 451056,
      "componentType": 5126,
      "count": 2733,
      "max": [
        22.161731719970703,
        10.678044319152832,
        22.161731719970703
      ],
      "min": [
        -22.161731719970703,
        -39.740562438964844,
        -22.161731719970703
      ],
      "type": "VEC3"
    },
    {
      "bufferView": 2,
      "byteOffset": 483852,
      "componentType": 5126,
      "count": 2733,
      "max": [
        1.0,
        1.0,
        1.0
      ],
      "min": [
        -1.0,
        -1.0,
        -1.0
      ],
      "type": "VEC3"
    },
    {
      "bufferView": 1,
      "byteOffset": 150352,
      "componentType": 5126,
      "count": 2733,
      "max": [
        0.995517373085022,
        0.983532190322876
      ],
      "min": [
        0.05014975368976593,
        0.06842947006225586
      ],
      "type": "VEC2"
    },
    {
      "bufferView": 0,
      "byteOffset": 228720,
      "componentType": 5125,
      "count": 8688,
      "type": "SCALAR"
    },
    {
      "bufferView": 2,
      "byteOffset": 516648,
      "componentType": 5126,
      "count": 11578,
      "max": [
        22.270883560180664,
        45.49673843383789,
        36.63887405395508
      ],
      "min": [
        -22.270883560180664,
        -32.898948669433594,
        -22.262218475341797
      ],
      "type": "VEC3"
    },
    {
      "bufferView": 2,
      "byteOffset": 655584,
      "componentType": 5126,
      "count": 11578,
      "max": [
        0.9991211295127869,
        0.9993072748184204,
        0.9983067512512207
      ],
      "min": [
        -0.9991211295127869,
        -0.999192476272583,
        -0.9978070259094238
      ],
      "type": "VEC3"
    },
    {
      "bufferView": 1,
      "byteOffset": 172216,
      "componentType": 5126,
      "count": 11578,
      "max": [
        0.9968144297599792,
        0.99830162525177
      ],
      "min": [
        0.0550723560154438,
        0.03803050518035889
      ],
      "type": "VEC2"
    },
    {
      "bufferView": 0,
      "byteOffset": 263472,
      "componentType": 5125,
      "count": 40500,
      "type": "SCALAR"
    },
    {
      "bufferView": 2,
      "byteOffset": 794520,
      "componentType": 5126,
      "count": 11578,
      "max": [
        22.09263038635254,
        44.3504753112793,
        22.031850814819336
      ],
      "min": [
        -38.018150329589844,
        -31.8577823638916,
        -22.031850814819336
      ],
      "type": "VEC3"
    },
    {
      "bufferView": 2,
      "byteOffset": 933456,
      "componentType": 5126,
      "count": 11578,
      "max": [
        0.9999960064888,
        0.9999992847442627,
        0.998075008392334
      ],
      "min": [
        -0.9999960064888,
        -0.9999992847442627,
        -0.998075008392334
      ],
      "type": "VEC3"
    },
    {
      "bufferView": 1,
      "byteOffset": 264840,
      "componentType": 5126,
      "count": 11578,
      "max": [
        0.9964877963066101,
        0.999112069606781
      ],
      "min": [
        0.03887723758816719,
        0.04679727554321289
      ],
      "type": "VEC2"
    },
    {
      "bufferView": 0,
      "byteOffset": 425472,
      "componentType": 5125,
      "count": 40500,
      "type": "SCALAR"
    },
    {
      "bufferView": 2,
      "byteOffset": 1072392,
      "componentType": 5126,
      "count": 12750,
      "max": [
        53.0443115234375,
        105.92801666259766,
        34.93093490600586
      ],
      "min": [
        -35.88095474243164,
        -78.1503677368164,
        -34.93093490600586
      ],
      "type": "VEC3"
    },
    {
      "bufferView": 2,
      "byteOffset": 1225392,
      "componentType": 5126,
      "count": 12750,
      "max": [
        0.9999604821205139,
        0.9999915361404419,
        0.9995344877243042
      ],
      "min": [
        -0.9999604821205139,
        -0.9999604225158691,
        -0.999534547328949
      ],
      "type": "VEC3"
    },
    {
      "bufferView": 1,
      "byteOffset": 357464,
      "componentType": 5126,
      "count": 12750,
      "max": [
        0.886475145816803,
        0.9394638538360596
      ],
      "min": [
        0.7000445127487183,
        0.40510785579681396
      ],
      "type": "VEC2"
    },
    {
      "bufferView": 0,
      "byteOffset": 587472,
      "componentType": 5125,
      "count": 50400,
      "type": "SCALAR"
    },
    {
      "bufferView": 2,
      "byteOffset": 1378392,
      "componentType": 5126,
      "count": 12750,
      "max": [
        35.0,
        103.43870544433594,
        34.93093490600586
      ],
      "min": [
        -60.13094711303711,
        -74.26298522949219,
        -34.93093490600586
      ],
      "type": "VEC3"
    },
    {
      "bufferView": 2,
      "byteOffset": 1531392,
      "componentType": 5126,
      "count": 12750,
      "max": [
        1.0,
        1.0,
        0.9995344877243042
      ],
      "min": [
        -1.0,
        -1.0,
        -0.9995344281196594
      ],
      "type": "VEC3"
    },
    {
      "bufferView": 1,
      "byteOffset": 459464,
      "componentType": 5126,
      "count": 12750,
      "max": [
        0.8890154361724854,
        0.8574413061141968
      ],
      "min": [
        0.28239524364471436,
        0.41249096393585205
      ],
      "type": "VEC2"
    },
    {
      "bufferView": 0,
      "byteOffset": 789072,
      "componentType": 5125,
      "count": 50400,
      "type": "SCALAR"
    },
    {
      "bufferView": 2,
      "byteOffset": 1684392,
      "componentType": 5126,
      "count": 328,
      "max": [
        6.764899730682373,
        2.64198899269104,
        6.780025482177734
      ],
      "min": [
        -6.764899730682373,
        -2.64198899269104,
        -6.780025482177734
      ],
      "type": "VEC3"
    },
    {
      "bufferView": 2,
      "byteOffset": 1688328,
      "componentType": 5126,
      "count": 328,
      "max": [
        0.9990221261978149,
        0.9980908632278442,
        0.9987233877182007
      ],
      "min": [
        -0.9990221261978149,
        -0.9980908632278442,
        -0.9987233877182007
      ],
      "type": "VEC3"
    },
    {
      "bufferView": 1,
      "byteOffset": 561464,
      "componentType": 5126,
      "count": 328,
      "max": [
        0.9246972799301147,
        0.9614347219467163
      ],
      "min": [
        0.35602352023124695,
        0.3124188184738159
      ],
      "type": "VEC2"
    },
    {
      "bufferView": 0,
      "byteOffset": 990672,
      "componentType": 5125,
      "count": 1440,
      "type": "SCALAR"
    },
    {
      "bufferView": 2,
      "byteOffset": 1692264,
      "componentType": 5126,
      "count": 328,
      "max": [
        7.414680480957031,
        2.47920823097229,
        7.414680480957031
      ],
      "min": [
        -7.414680480957031,
        -2.47920823097229,
        -7.414680480957031
      ],
      "type": "VEC3"
    },
    {
      "bufferView": 2,
      "byteOffset": 1696200,
      "componentType": 5126,
      "count": 328,
      "max": [
        1.0,
        1.0,
        1.0
      ],
      "min": [
        -1.0,
        -1.0,
        -1.0
      ],
      "type": "VEC3"
    },
    {
      "bufferView": 1,
      "byteOffset": 564088,
      "componentType": 5126,
      "count": 328,
      "max": [
        0.9652408361434937,
        0.9689710140228271
      ],
      "min": [
        0.42909616231918335,
        0.10958504676818848
      ],
      "type": "VEC2"
    },
    {
      "bufferView": 0,
      "byteOffset": 996432,
      "componentType": 5125,
      "count": 1440,
      "type": "SCALAR"
    },
    {
      "bufferView": 2,
      "byteOffset": 1700136,
      "componentType": 5126,
      "count": 328,
      "max": [
        10.700521469116211,
        4.466085433959961,
        10.414277076721191
      ],
      "min": [
        -10.700521469116211,
        -4.466085433959961,
        -10.414277076721191
      ],
      "type": "VEC3"
    },
    {
      "bufferView": 2,
      "byteOffset": 1704072,
      "componentType": 5126,
      "count": 328,
      "max": [
        0.9953792691230774,
        0.9953791499137878,
        1.0
      ],
      "min": [
        -0.9953792691230774,
        -0.9953791499137878,
        -1.0
      ],
      "type": "VEC3"
    },
    {
      "bufferView": 1,
      "byteOffset": 566712,
      "componentType": 5126,
      "count": 328,
      "max": [
        0.6318888068199158,
        0.8988442420959473
      ],
      "min": [
        0.10556132346391678,
        0.22366559505462646
      ],
      "type": "VEC2"
    },
    {
      "bufferView": 0,
      "byteOffset": 1002192,
      "componentType": 5125,
      "count": 1440,
      "type": "SCALAR"
    },
    {
      "bufferView": 2,
      "byteOffset": 1708008,
      "componentType": 5126,
      "count": 328,
      "max": [
        10.414277076721191,
        3.482167959213257,
        10.414277076721191
      ],
      "min": [
        -10.414277076721191,
        -3.482167959213257,
        -10.414277076721191
      ],
      "type": "VEC3"
    },
    {
      "bufferView": 2,
      "byteOffset": 1711944,
      "componentType": 5126,
      "count": 328,
      "max": [
        1.0,
        1.0,
        1.0
      ],
      "min": [
        -1.0,
        -1.0,
        -1.0
      ],
      "type": "VEC3"
    },
    {
      "bufferView": 1,
      "byteOffset": 569336,
      "componentType": 5126,
      "count": 328,
      "max": [
        0.8254411220550537,
        0.6281469464302063
      ],
      "min": [
        0.19073116779327393,
        0.1686934232711792
      ],
      "type": "VEC2"
    },
    {
      "bufferView": 0,
      "byteOffset": 1007952,
      "componentType": 5125,
      "count": 1440,
      "type": "SCALAR"
    }
  ],
  "asset": {
    "extras": {
      "author": "WeSVa (https://sketchfab.com/WSVideoCarta)",
      "license": "SKETCHFAB Standard (https://sketchfab.com/licenses)",
      "source": "https://sketchfab.com/3d-models/space-ship-9af6b4006d904f19add252cfb331238e",
      "title": "Space Ship"
    },
    "generator": "Sketchfab-16.58.0",
    "version": "2.0"
  },
  "bufferViews": [
    {
      "buffer": 0,
      "byteLength": 1013712,
      "name": "floatBufferViews",
      "target": 34963
    },
    {
      "buffer": 0,
      "byteLength": 571960,
      "byteOffset": 1013712,
      "byteStride": 8,
      "name": "floatBufferViews",
      "target": 34962
    },
    {
      "buffer": 0,
      "byteLength": 1715880,
      "byteOffset": 1585672,
      "byteStride": 12,
      "name": "floatBufferViews",
      "target": 34962
    }
  ],
  "buffers": [
    {
      "byteLength": 3301552,
      "uri": "scene.bin"
    }
  ],
  "extensionsUsed": [
    "KHR_materials_emissive_strength",
    "KHR_materials_specular"
  ],
  "images": [
    {
      "uri": "textures/Scene_-_Root_baseColor.png"
    },
    {
      "uri": "textures/Scene_-_Root_metallicRoughness.png"
    },
    {
      "uri": "textures/Scene_-_Root_emissive.png"
    },
    {
      "uri": "textures/Scene_-_Root_specularf0.png"
    }
  ],
  "materials": [
    {
      "doubleSided": true,
      "emissiveFactor": [
        1.0,
        1.0,
        1.0
      ],
      "emissiveTexture": {
        "index": 2
      },
      "extensions": {
        "KHR_materials_emissive_strength": {
          "emissiveStrength": 10.0
        },
        "KHR_materials_specular": {
          "specularColorFactor": [
            1.0,
            1.0,
            1.0
          ],
          "specularFactor": 1.0,
          "specularTexture": {
            "index": 3
          }
        }
      },
      "name": "Scene_-_Root",
      "pbrMetallicRoughness": {
        "baseColorTexture": {
          "index": 0
        },
        "metallicFactor": 0.0,
        "metallicRoughnessTexture": {
          "index": 1
        }
      }
    }
  ],
  "meshes": [
    {
      "name": "Cube__0",
      "primitives": [
        {
          "attributes": {
            "NORMAL": 1,
            "POSITION": 0,
            "TEXCOORD_0": 2
          },
          "indices": 3,
          "material": 0,
          "mode": 4
        }
      ]
    },
    {
      "name": "Cube_2__0",
      "primitives": [
        {
          "attributes": {
            "NORMAL": 5,
            "POSITION": 4,
            "TEXCOORD_0": 6
          },
          "indices": 7,
          "material": 0,
          "mode": 4
        }
      ]
    },
    {
      "name": "Cube_1__0",
      "primitives": [
        {
          "attributes": {
            "NORMAL": 9,
            "POSITION": 8,
            "TEXCOORD_0": 10
          },
          "indices": 11,
          "material": 0,
          "mode": 4
        }
      ]
    },
    {
      "name": "Cylinder_1_1__0",
      "primitives": [
        {
          "attributes": {
            "NORMAL": 13,
            "POSITION": 12,
            "TEXCOORD_0": 14
          },
          "indices": 15,
          "material": 0,
          "mode": 4
        }
      ]
    },
    {
      "name": "Cylinder_1__0",
      "primitives": [
        {
          "attributes": {
            "NORMAL": 17,
            "POSITION": 16,
            "TEXCOORD_0": 18
          },
          "indices": 19,
          "material": 0,
          "mode": 4
        }
      ]
    },
    {
      "name": "Cylinder_1_1_2__0",
      "primitives": [
        {
          "attributes": {
            "NORMAL": 21,
            "POSITION": 20,
            "TEXCOORD_0": 22
          },
          "indices": 23,
          "material": 0,
          "mode": 4
        }
      ]
    },
    {
      "name": "Cylinder_1_2__0",
      "primitives": [
        {
          "attributes": {
            "NORMAL": 25,
            "POSITION": 24,
            "TEXCOORD_0": 26
          },
          "indices": 27,
          "material": 0,
          "mode": 4
        }
      ]
    },
    {
      "name": "Cylinder_1_3__0",
      "primitives": [
        {
          "attributes": {
            "NORMAL": 29,
            "POSITION": 28,
            "TEXCOORD_0": 30
          },
          "indices": 31,
          "material": 0,
          "mode": 4
        }
      ]
    },
    {
      "name": "Cylinder__0",
      "primitives": [
        {
          "attributes": {
            "NORMAL": 33,
            "POSITION": 32,
            "TEXCOORD_0": 34
          },
          "indices": 35,
          "material": 0,
          "mode": 4
        }
      ]
    },
    {
      "name": "Cylinder_1_4__0",
      "primitives": [
        {
          "attributes": {
            "NORMAL": 37,
            "POSITION": 36,
            "TEXCOORD_0": 38
          },
          "indices": 39,
          "material": 0,
          "mode": 4
        }
      ]
    },
    {
      "name": "Cylinder_2__0",
      "primitives": [
        {
          "attributes": {
            "NORMAL": 41,
            "POSITION": 40,
            "TEXCOORD_0": 42
          },
          "indices": 43,
          "material": 0,
          "mode": 4
        }
      ]
    },
    {
      "name": "Cylinder_1_5__0",
      "primitives": [
        {
          "attributes": {
            "NORMAL": 45,
            "POSITION": 44,
            "TEXCOORD_0": 46
          },
          "indices": 47,
          "material": 0,
          "mode": 4
        }
      ]
    },
    {
      "name": "Cylinder_3__0",
      "primitives": [
        {
          "attributes": {
            "NORMAL": 49,
            "POSITION": 48,
            "TEXCOORD_0": 50
          },
          "indices": 51,
          "material": 0,
          "mode": 4
        }
      ]
    },
    {
      "name": "Cylinder_1_6__0",
      "primitives": [
        {
          "attributes": {
            "NORMAL": 53,
            "POSITION": 52,
            "TEXCOORD_0": 54
          },
          "indices": 55,
          "material": 0,
          "mode": 4
        }
      ]
    },
    {
      "name": "Cylinder_4__0",
      "primitives": [
        {
          "attributes": {
            "NORMAL": 57,
            "POSITION": 56,
            "TEXCOORD_0": 58
          },
          "indices": 59,
          "material": 0,
          "mode": 4
        }
      ]
    }
  ],
  "nodes": [
    {
      "children": [
        1
      ],
      "matrix": [
        1.0,
        0.0,
        0.0,
        0.0,
        0.0,
        2.220446049250313e-16,
        -1.0,
        0.0,
        0.0,
        1.0,
        2.220446049250313e-16,
        0.0,
        0.0,
        0.0,
        0.0,
        1.0
      ],
      "name": "Sketchfab_model"
    },
    {
      "children": [
        2
      ],
      "matrix": [
        0.009999999776482582,
        0.0,
        0.0,
        0.0,
        0.0,
        0.0,
        0.009999999776482582,
        0.0,
        0.0,
        -0.009999999776482582,
        0.0,
        0.0,
        0.0,
        0.0,
        0.0,
        1.0
      ],
      "name": "Craser.fbx"
    },
    {
      "children": [
        3,
        5,
        7,
        9,
        11,
        13,
        15,
        17,
        19,
        21,
        23,
        25,
        27,
        29,
        31,
        33
      ],
      "name": "RootNode"
    },
    {
      "children": [
        4
      ],
      "matrix": [
        -0.42065824694214116,
        -0.37578463070188306,
        -0.8257315245331341,
        0.0,
        -0.17057915782345068,
        0.9267070256171847,
        -0.3348385276338327,
        0.0,
        0.8910383775100862,
        2.498001805406602e-16,
        -0.45392797865321444,
        0.0,
        212.63844299316406,
        321.0437316894531,
        425.0998840332031,
        1.0
      ],
      "name": "CINEMA_4D_Editor"
    },
    {
      "name": "Object_4"
    },
    {
      "children": [
        6
      ],
      "matrix": [
        1.0,
        0.0,
        0.0,
        0.0,
        0.0,
        1.0,
        0.0,
        0.0,
        0.0,
        0.0,
        1.0,
        0.0,
        0.0,
        165.00599670410156,
        -135.0,
        1.0
      ],
      "name": "Cube"
    },
    {
      "mesh": 0,
      "name": "Cube__0"
    },
    {
      "children": [
        8
      ],
      "matrix": [
        -0.9999999999999998,
        -1.2246467991473532e-16,
        1.0673500138322958e-17,
        0.0,
        1.2292892166683477e-16,
        -0.9961946980917453,
        0.08715574274765807,
        0.0,
        -4.061589044411865e-20,
        0.08715574274765807,
        0.9961946980917455,
        0.0,
        1.9389996325392685e-16,
        106.39047241210938,
        3.1094810962677,
        1.0
      ],
      "name": "Cube_2"
    },
    {
      "mesh": 1,
      "name": "Cube_2__0"
    },
    {
      "children": [
        10
      ],
      "matrix": [
        1.0,
        0.0,
        0.0,
        0.0,
        0.0,
        1.0,
        0.0,
        0.0,
        0.0,
        0.0,
        1.0,
        0.0,
        0.0,
        202.72064208984375,
        0.0,
        1.0
      ],
      "name": "Cube_1"
    },
    {
      "mesh": 2,
      "name": "Cube_1__0"
    },
    {
      "children": [
        12
      ],
      "matrix": [
        0.7660444431189781,
        -0.6427876096865393,
        0.0,
        0.0,
        0.6427876096865393,
        0.7660444431189781,
        0.0,
        0.0,
        0.0,
        0.0,
        1.0,
        0.0,
        -55.28123474121094,
        197.75250244140625,
        -69.17932891845703,
        1.0
      ],
      "name": "Cylinder_1_1"
    },
    {
      "mesh": 3,
      "name": "Cylinder_1_1__0"
    },
    {
      "children": [
        14
      ],
      "matrix": [
        0.7660444431189781,
        -0.6427876096865393,
        0.0,
        0.0,
        0.6427876096865393,
        0.7660444431189781,
        0.0,
        0.0,
        0.0,
        0.0,
        1.0,
        0.0,
        55.28123474121094,
        197.75250244140625,
        -69.17932891845703,
        1.0
      ],
      "name": "Cylinder_1"
    },
    {
      "mesh": 4,
      "name": "Cylinder_1__0"
    },
    {
      "children": [
        16
      ],
      "matrix": [
        4.440892098500626e-16,
        -1.0,
        0.0,
        0.0,
        1.0,
        4.440892098500626e-16,
        0.0,
        0.0,
        0.0,
        0.0,
        1.0,
        0.0,
        -85.16046905517578,
        165.0,
        -69.17932891845703,
        1.0
      ],
      "name": "Cylinder_1_1_2"
    },
    {
      "mesh": 5,
      "name": "Cylinder_1_1_2__0"
    },
    {
      "children": [
        18
      ],
      "matrix": [
        4.440892098500626e-16,
        -1.0,
        0.0,
        0.0,
        1.0,
        4.440892098500626e-16,
        0.0,
        0.0,
        0.0,
        0.0,
        1.0,
        0.0,
        85.16046905517578,
        165.0,
        -69.17932891845703,
        1.0
      ],
      "name": "Cylinder_1_2"
    },
    {
      "mesh": 6,
      "name": "Cylinder_1_2__0"
    },
    {
      "children": [
        20
      ],
      "matrix": [
        0.6420446216104353,
        0.765158984410026,
        0.048066957858080794,
        0.0,
        -0.030896844946499247,
        -0.03682142596481697,
        0.9988441157469315,
        0.0,
        0.7660444431189779,
        -0.6427876096865396,
        -2.220446049250313e-16,
        0.0,
        -80.06112670898438,
        227.27120971679688,
        -40.11796188354492,
        1.0
      ],
      "name": "Cylinder_1_3"
    },
    {
      "mesh": 7,
      "name": "Cylinder_1_3__0"
    },
    {
      "children": [
        22
      ],
      "matrix": [
        0.6420446216104353,
        0.765158984410026,
        0.048066957858080794,
        0.0,
        -0.030896844946499247,
        -0.03682142596481697,
        0.9988441157469315,
        0.0,
        0.7660444431189779,
        -0.6427876096865396,
        -2.220446049250313e-16,
        0.0,
        80.06112670898438,
        227.27120971679688,
        -40.11796188354492,
        1.0
      ],
      "name": "Cylinder"
    },
    {
      "mesh": 8,
      "name": "Cylinder__0"
    },
    {
      "children": [
        24
      ],
      "matrix": [
        0.9988441157469327,
        6.938893903907228e-18,
        0.048066957858057646,
        0.0,
        -0.048066957858057646,
        2.220446049250313e-16,
        0.9988441157469325,
        0.0,
        -6.938893903907228e-18,
        -1.0,
        2.220446049250313e-16,
        0.0,
        -146.4910888671875,
        164.97999572753906,
        -2.8574912548065186,
        1.0
      ],
      "name": "Cylinder_1_4"
    },
    {
      "mesh": 9,
      "name": "Cylinder_1_4__0"
    },
    {
      "children": [
        26
      ],
      "matrix": [
        0.9988441157469329,
        -3.469446951953614e-18,
        0.04806695785805232,
        0.0,
        -0.04806695785805232,
        -4.440892098500626e-16,
        0.9988441157469329,
        0.0,
        1.0408340855860843e-17,
        -1.0,
        -4.440892098500626e-16,
        0.0,
        146.4910888671875,
        164.97999572753906,
        -2.8574912548065186,
        1.0
      ],
      "name": "Cylinder_2"
    },
    {
      "mesh": 10,
      "name": "Cylinder_2__0"
    },
    {
      "children": [
        28
      ],
      "matrix": [
        0.6420446216104353,
        0.765158984410026,
        0.048066957858080794,
        0.0,
        -0.030896844946499247,
        -0.03682142596481697,
        0.9988441157469315,
        0.0,
        0.7660444431189779,
        -0.6427876096865396,
        -2.220446049250313e-16,
        0.0,
        -79.09825134277344,
        226.1237030029297,
        -7.029457092285156,
        1.0
      ],
      "name": "Cylinder_1_5"
    },
    {
      "mesh": 11,
      "name": "Cylinder_1_5__0"
    },
    {
      "children": [
        30
      ],
      "matrix": [
        0.6420446216104351,
        0.7651589844100262,
        0.048066957858080794,
        0.0,
        -0.030896844946499302,
        -0.03682142596481697,
        0.9988441157469317,
        0.0,
        0.7660444431189781,
        -0.6427876096865395,
        -2.220446049250313e-16,
        0.0,
        79.09825134277344,
        226.1237030029297,
        -7.029457092285156,
        1.0
      ],
      "name": "Cylinder_3"
    },
    {
      "mesh": 12,
      "name": "Cylinder_3__0"
    },
    {
      "children": [
        32
      ],
      "matrix": [
        0.9988441157469321,
        1.0408340855860843e-17,
        0.048066957858068485,
        0.0,
        -0.048066957858068485,
        5.551115123125783e-16,
        0.9988441157469321,
        0.0,
        -1.0408340855860843e-17,
        -1.0,
        5.551115123125783e-16,
        0.0,
        -142.7757568359375,
        164.97999572753906,
        74.34828186035156,
        1.0
      ],
      "name": "Cylinder_1_6"
    },
    {
      "mesh": 13,
      "name": "Cylinder_1_6__0"
    },
    {
      "children": [
        34
      ],
      "matrix": [
        0.9988441157469321,
        1.0408340855860843e-17,
        0.048066957858068485,
        0.0,
        -0.048066957858068485,
        5.551115123125783e-16,
        0.9988441157469321,
        0.0,
        -1.0408340855860843e-17,
        -1.0,
        5.551115123125783e-16,
        0.0,
        142.7757568359375,
        164.97999572753906,
        74.34828186035156,
        1.0
      ],
      "name": "Cylinder_4"
    },
    {
      "mesh": 14,
      "name": "Cylinder_4__0"
    }
  ],
  "samplers": [
    {
      "magFilter": 9729,
      "minFilter": 9987,
      "wrapS": 10497,
      "wrapT": 10497
    }
  ],
  "scene": 0,
  "scenes": [
    {
      "name": "Sketchfab_Scene",
      "nodes": [
        0
      ]
    }
  ],
  "textures": [
    {
      "sampler": 0,
      "source": 0
    },
    {
      "sampler": 0,
      "source": 1
    },
    {
      "sampler": 0,
      "source": 2
    },
    {
      "sampler": 0,
      "source": 3
    }
  ]
}
